<?xml version="1.0" encoding="iso-8859-1"?>
<!-- Generator: Adobe Illustrator 18.0.0, SVG Export Plug-In . SVG Version: 6.00 Build 0)  -->
<!DOCTYPE svg PUBLIC "-//W3C//DTD SVG 1.1//EN" "http://www.w3.org/Graphics/SVG/1.1/DTD/svg11.dtd">
<svg xmlns="http://www.w3.org/2000/svg" xmlns:xlink="http://www.w3.org/1999/xlink" version="1.1" id="Capa_1" x="0px" y="0px" viewBox="0 0 430.754 430.754" style="enable-background:new 0 0 430.754 430.754;" xml:space="preserve" width="512px" height="512px">
<path d="M354.648,230.648c14.631-14.631,16.095-39.949,4.121-71.29c-5.968-15.622-14.949-31.949-26.335-48.099l13.126-52.692  c8.779-10.401,8.277-26.017-1.519-35.813c-9.797-9.796-25.411-10.297-35.813-1.519l-52.693,13.126  c-16.15-11.386-32.477-20.367-48.099-26.336c-31.342-11.973-56.659-10.51-71.29,4.122C76.338,71.957,75.921,169,134.874,229.343  L88.268,388.754H71.459c-4.143,0-7.5,3.358-7.5,7.5v27c0,4.142,3.357,7.5,7.5,7.5h198.88c4.143,0,7.5-3.358,7.5-7.5v-27  c0-4.142-3.357-7.5-7.5-7.5h-16.86l-34.796-115.24c8.832,1.538,17.773,2.315,26.714,2.315  C284.963,275.829,324.527,260.769,354.648,230.648z M344.758,164.712c9.595,25.113,9.333,45.28-0.717,55.33  c-7.917,7.918-22.121,9.755-40.073,5.486l23.569-94.612C334.741,142.355,340.565,153.738,344.758,164.712z M198.982,157.207  c-24.463-25.602-43.147-53.479-52.944-79.123c-0.116-0.303-0.223-0.602-0.336-0.903l106.705-26.582  c9.758,7.252,19.431,15.431,28.8,24.383L198.982,157.207z M291.813,85.589c8.952,9.369,17.131,19.042,24.383,28.8l-26.582,106.705  c-0.302-0.113-0.6-0.22-0.903-0.336c-25.645-9.798-53.521-28.482-79.123-52.944L291.813,85.589z M302.424,74.979l10.214-10.214  c3.935,2.139,8.299,3.215,12.666,3.215c0.829,0,1.657-0.04,2.483-0.117l-6.979,28.013C315.097,88.795,308.955,81.802,302.424,74.979  z M317.172,33.361c2.241-2.242,5.187-3.363,8.132-3.363c2.944,0,5.89,1.121,8.131,3.363c4.484,4.484,4.484,11.78,0,16.264  c-4.483,4.485-11.781,4.483-16.263,0C312.687,45.141,312.687,37.845,317.172,33.361z M298.932,39.009  c-0.483,5.177,0.553,10.467,3.098,15.149l-10.213,10.213c-6.823-6.531-13.815-12.673-20.897-18.384L298.932,39.009z M146.755,22.754  c5.149-5.15,12.955-7.729,22.723-7.729c9.293,0,20.362,2.335,32.606,7.013c10.974,4.193,22.357,10.017,33.796,17.22l-94.612,23.569  C136.999,44.876,138.836,30.673,146.755,22.754z M124.311,52.102c0.835,9.518,3.396,20.032,7.715,31.336  c11.223,29.375,33.097,61.246,61.591,89.741c28.495,28.495,60.366,50.369,89.741,61.592c11.299,4.317,21.812,6.884,31.325,7.72  c-53.271,30.462-122.498,22.984-167.929-22.448C101.32,174.608,93.843,105.376,124.311,52.102z M147.189,240.671  c5.2,4.288,10.615,8.19,16.21,11.693v136.39h-59.504L147.189,240.671z M262.839,415.754H78.959v-12h183.88V415.754z M237.81,388.754  h-59.411V260.618c7.602,3.65,15.44,6.649,23.434,8.984L237.81,388.754z" fill="#FFFFFF"/>
<g>
</g>
<g>
</g>
<g>
</g>
<g>
</g>
<g>
</g>
<g>
</g>
<g>
</g>
<g>
</g>
<g>
</g>
<g>
</g>
<g>
</g>
<g>
</g>
<g>
</g>
<g>
</g>
<g>
</g>
</svg>
